<?xml version="1.0" encoding="UTF-8"?>
<svg version="1.1" xmlns="http://www.w3.org/2000/svg" width="1418" height="196">
<path d="M0 0 C106.25405405 0 106.25405405 0 127.2578125 20.16796875 C136.35342912 29.91806701 138.51346872 38.59791022 138.26953125 51.66796875 C137.76181917 63.22029431 131.58472399 72.47703441 123.52734375 80.4453125 C112.08719346 90.38594383 99.53554715 94.96074923 85 98 C87.54450235 100.54450235 90.16896296 101.54816137 93.4375 103.0625 C111.86864092 111.98630336 125.01266174 128.25475658 131.90625 147.3984375 C135.85475309 160.40029409 138.19716308 173.40498751 138.0625 187 C138.041875 189.97 138.02125 192.94 138 196 C130.41 196 122.82 196 115 196 C114.83564453 193.48052734 114.83564453 193.48052734 114.66796875 190.91015625 C112.85182178 164.43760526 110.34529092 137.17289695 91 117 C71.13650261 100.04496812 46.16745402 100.62370671 21 99 C21 131.01 21 163.02 21 196 C14.07 196 7.14 196 0 196 C0 131.32 0 66.64 0 0 Z M21 8 C21 35.72 21 63.44 21 92 C31.951875 92.0928125 31.951875 92.0928125 43.125 92.1875 C45.39906738 92.21481201 47.67313477 92.24212402 50.01611328 92.27026367 C69.43585343 92.40735822 86.17513114 90.3563939 100.81640625 76.27734375 C109.32437994 67.40409033 114.53073482 57.27903517 115.06640625 44.8125 C114.82836617 34.73080246 110.59767051 26.51633349 104 19 C94.78294428 11.88762629 84.77739776 7.86105142 73.1081543 7.88647461 C71.93119995 7.88659546 70.75424561 7.88671631 69.54162598 7.88684082 C68.31488159 7.89195679 67.08813721 7.89707275 65.82421875 7.90234375 C64.12150818 7.90385437 64.12150818 7.90385437 62.38439941 7.90539551 C58.1520893 7.91061971 53.91979362 7.92458098 49.6875 7.9375 C35.4871875 7.9684375 35.4871875 7.9684375 21 8 Z " fill="#C98624" transform="translate(934,0)"/>
<path d="M0 0 C24.60219309 -0.77595043 44.93300794 9.41176972 63.16796875 25.05078125 C79.16441064 40.07969642 87.36387451 60.08030256 91.91796875 81.12109375 C91.91796875 81.78109375 91.91796875 82.44109375 91.91796875 83.12109375 C85.31796875 82.79109375 78.71796875 82.46109375 71.91796875 82.12109375 C71.69109375 79.15109375 71.46421875 76.18109375 71.23046875 73.12109375 C69.52774347 54.65400315 63.67882633 38.1276186 49.91796875 25.12109375 C37.52365136 15.00994009 23.46983098 12.76452607 7.91796875 14.12109375 C-12.80175027 17.5281951 -31.02319886 31.5018302 -43.08203125 48.12109375 C-61.16835742 73.66569876 -70.39573202 103.4262349 -65.46875 134.890625 C-62.16523278 151.14205096 -53.57163873 166.52394055 -39.83203125 175.99609375 C-27.43000209 183.26210252 -14.30987471 185.00572743 -0.30859375 182.42578125 C24.38607534 175.93866067 43.2352639 158.70587047 55.91796875 137.12109375 C57.56796875 133.82109375 59.21796875 130.52109375 60.91796875 127.12109375 C43.09796875 127.12109375 25.27796875 127.12109375 6.91796875 127.12109375 C6.91796875 124.48109375 6.91796875 121.84109375 6.91796875 119.12109375 C34.63796875 119.12109375 62.35796875 119.12109375 90.91796875 119.12109375 C86.25818662 137.76022225 86.25818662 137.76022225 83.16796875 143.93359375 C82.82435303 144.6387915 82.4807373 145.34398926 82.12670898 146.07055664 C79.02329956 152.25546574 75.33547073 157.78817786 70.91796875 163.12109375 C70.21929688 163.97058594 69.520625 164.82007813 68.80078125 165.6953125 C55.09542826 181.61985966 36.88060778 192.9157427 15.91796875 196.12109375 C1.77786796 197.16055368 -12.76339919 197.43054842 -26.08203125 192.12109375 C-26.75878906 191.85264648 -27.43554688 191.58419922 -28.1328125 191.30761719 C-38.65643377 187.02706313 -47.5172013 181.55834105 -56.08203125 174.12109375 C-57.18417969 173.16976562 -57.18417969 173.16976562 -58.30859375 172.19921875 C-76.52140739 155.21994229 -86.92314551 129.66765333 -88.1887207 105.04541016 C-89.0301982 77.17272536 -81.52276541 49.79834104 -62.08203125 29.12109375 C-60.98761719 27.92613281 -60.98761719 27.92613281 -59.87109375 26.70703125 C-43.97670159 10.03186193 -22.76211416 1.32387531 0 0 Z " fill="#C98624" transform="translate(827.08203125,-0.12109375)"/>
<path d="M0 0 C18.70321895 14.78977368 32.9668608 35.80749496 37.2109375 59.625 C37.44376597 61.63865164 37.58095971 63.66323441 37.6875 65.6875 C35.83341875 65.71490022 33.97921531 65.73407422 32.125 65.75 C31.09246094 65.76160156 30.05992187 65.77320312 28.99609375 65.78515625 C25.49564856 65.68183732 22.14296819 65.24089781 18.6875 64.6875 C18.59045776 63.85895508 18.59045776 63.85895508 18.49145508 63.01367188 C15.76785107 40.4393197 11.34037452 20.58846269 -7.08984375 5.3984375 C-7.82332031 4.83382813 -8.55679688 4.26921875 -9.3125 3.6875 C-9.9725 4.0175 -10.6325 4.3475 -11.3125 4.6875 C-11.3125 3.6975 -11.3125 2.7075 -11.3125 1.6875 C-13.30718882 1.00510646 -15.30907266 0.34379516 -17.3125 -0.3125 C-18.29863281 -0.70888672 -18.29863281 -0.70888672 -19.3046875 -1.11328125 C-32.76288685 -6.02622254 -48.31969104 -4.16613368 -61.19140625 1.51708984 C-70.21266103 5.72017446 -77.93692977 10.96833165 -85.3125 17.6875 C-86.00601563 18.29980469 -86.69953125 18.91210938 -87.4140625 19.54296875 C-107.2820904 38.10493107 -119.52473692 67.99570018 -120.515625 94.84375 C-120.8892704 115.6488973 -116.47087746 136.12199989 -102.0625 152.03125 C-91.94992321 161.60208161 -80.10586628 165.96308955 -66.3125 166.6875 C-45.02828995 165.77431607 -26.10833933 154.25211161 -11.75 139.0625 C-1.96612658 127.72368955 4.61124357 115.30281533 10.6875 101.6875 C19.2675 101.6875 27.8475 101.6875 36.6875 101.6875 C35.96401875 107.47534999 35.16504967 112.01475849 33.125 117.3125 C32.73127197 118.34238037 32.73127197 118.34238037 32.32958984 119.39306641 C23.01450549 142.89432683 5.91569545 161.41974175 -16.75 172.5 C-18.59138792 173.26086043 -20.44644018 173.98933182 -22.3125 174.6875 C-23.79556641 175.2753125 -23.79556641 175.2753125 -25.30859375 175.875 C-43.36653034 181.88735346 -65.8018527 181.09585078 -83.3125 173.6875 C-84.24835938 173.29401367 -84.24835938 173.29401367 -85.203125 172.89257812 C-93.51870305 169.3103508 -100.52087455 164.65765116 -107.3125 158.6875 C-108.05886719 158.08421875 -108.80523437 157.4809375 -109.57421875 156.859375 C-127.1341891 142.27203488 -138.25443032 119.13591312 -141.3125 96.6875 C-141.63632013 91.66650097 -141.70246967 86.65480922 -141.6875 81.625 C-141.68695618 80.93841309 -141.68641235 80.25182617 -141.68585205 79.54443359 C-141.64665733 68.78062356 -140.83538643 58.91487967 -137.3125 48.6875 C-136.9 47.43839844 -136.4875 46.18929687 -136.0625 44.90234375 C-127.44998153 20.47451002 -110.07200874 1.98733596 -87.0703125 -9.5859375 C-58.73075979 -23.10397737 -24.92872407 -17.94868133 0 0 Z " fill="#C98624" transform="translate(141.3125,17.3125)"/>
<path d="M0 0 C2.52174925 2.2031721 4.89868873 4.4876476 7.25390625 6.8671875 C8.29998047 7.86298828 8.29998047 7.86298828 9.3671875 8.87890625 C17.56843504 17.23940132 25.25390625 30.96686609 25.25390625 42.8671875 C17.66390625 42.8671875 10.07390625 42.8671875 2.25390625 42.8671875 C1.44953125 40.4953125 0.64515625 38.1234375 -0.18359375 35.6796875 C-6.45133086 18.4230836 -17.38933697 7.41748446 -33.78125 -0.46875 C-45.67145308 -5.76372071 -60.28110827 -6.77539539 -72.74609375 -3.1328125 C-82.33378674 0.58389812 -89.93216754 5.19852377 -94.18359375 14.8046875 C-97.0503527 22.99719261 -96.01935245 29.89481876 -92.74609375 37.8671875 C-82.27981844 58.09527727 -58.54399596 65.99063644 -38.74609375 73.8671875 C10.36712352 93.50601957 10.36712352 93.50601957 21.40234375 114 C26.11547756 125.37205682 23.61832249 139.45614689 19.22265625 150.4453125 C14.18613481 161.5392719 5.72246184 170.00096324 -5.62353516 174.63378906 C-27.65345856 182.85641599 -57.12308045 183.54534575 -78.91796875 174.1015625 C-96.84771367 165.87470575 -110.32918681 153.84356794 -118.74609375 135.8671875 C-120.23109375 130.9171875 -120.23109375 130.9171875 -121.74609375 125.8671875 C-113.49609375 125.8671875 -105.24609375 125.8671875 -96.74609375 125.8671875 C-95.59109375 128.2803125 -94.43609375 130.6934375 -93.24609375 133.1796875 C-85.18699049 149.4731638 -75.11311379 161.35188478 -57.74609375 167.8671875 C-42.6101743 172.79154485 -25.69871845 171.78466446 -11.2421875 165.21875 C-8.08305041 163.50816873 -5.95686748 161.69974134 -3.74609375 158.8671875 C-3.02421875 157.9596875 -2.30234375 157.0521875 -1.55859375 156.1171875 C3.19743471 147.58913648 2.89994478 138.56041648 0.60546875 129.23046875 C-4.8853557 113.18617896 -20.39838947 105.40326372 -34.63867188 98.36962891 C-44.18184925 93.74940482 -53.81498626 89.51382104 -63.69189453 85.66381836 C-83.65603812 77.86068791 -103.96966906 68.99767934 -113.65234375 48.6640625 C-118.1335681 37.20493166 -116.00278785 24.43676294 -111.75 13.24609375 C-106.00120264 0.49530099 -96.10567613 -7.39504497 -83.30859375 -12.3828125 C-57.01543874 -21.13504163 -22.23403308 -17.26853779 0 0 Z " fill="#C98624" transform="translate(1392.74609375,16.1328125)"/>
<path d="M0 0 C1.16781006 0.00523682 2.33562012 0.01047363 3.53881836 0.01586914 C4.79887695 0.0190918 6.05893555 0.02231445 7.35717773 0.02563477 C8.6976732 0.03399136 10.03816799 0.04245632 11.37866211 0.05102539 C12.72306153 0.05603879 14.06746271 0.06060197 15.41186523 0.06469727 C18.71334151 0.07653051 22.01473014 0.09301568 25.31616211 0.11352539 C40.41096999 36.48507526 55.48954904 72.86335699 70.41540527 109.30462646 C75.25686464 121.12312552 80.13361717 132.92660358 85.03170776 144.72174072 C90.33354449 157.49010345 95.63461618 170.25879759 100.87866211 183.05102539 C101.33797119 184.16445312 101.79728027 185.27788086 102.27050781 186.42504883 C102.67873779 187.42439453 103.08696777 188.42374023 103.50756836 189.45336914 C103.86020752 190.31309326 104.21284668 191.17281738 104.57617188 192.05859375 C105.31616211 194.11352539 105.31616211 194.11352539 105.31616211 196.11352539 C96.07616211 196.11352539 86.83616211 196.11352539 77.31616211 196.11352539 C71.69844097 182.21095404 66.28075607 168.24893888 61.0222168 154.20678711 C59.79350787 150.92807433 58.55886521 147.65163298 57.32397461 144.37524414 C56.53976635 142.28553324 55.75589863 140.1956945 54.97241211 138.10571289 C54.60378052 137.12883514 54.23514893 136.1519574 53.85534668 135.14547729 C53.52079468 134.2491861 53.18624268 133.3528949 52.84155273 132.42944336 C52.54591431 131.64149384 52.25027588 130.85354431 51.94567871 130.04171753 C51.31616211 128.11352539 51.31616211 128.11352539 51.31616211 126.11352539 C6.76616211 126.60852539 6.76616211 126.60852539 -38.68383789 127.11352539 C-45.37036809 144.9574104 -45.37036809 144.9574104 -52.05566406 162.80175781 C-52.90433417 165.06585312 -53.75304569 167.32993289 -54.60180664 169.59399414 C-55.24357849 171.30794373 -55.24357849 171.30794373 -55.89831543 173.05651855 C-58.78630314 180.75809238 -61.72244175 188.43986851 -64.68383789 196.11352539 C-70.95383789 196.11352539 -77.22383789 196.11352539 -83.68383789 196.11352539 C-75.11099788 174.38391036 -66.15327555 152.81459424 -57.21704102 131.23266602 C-53.13868007 121.38243392 -49.06699673 111.52944245 -44.99633789 101.67602539 C-44.60144165 100.72022583 -44.20654541 99.76442627 -43.79968262 98.77966309 C-38.34886557 85.58514974 -32.91333857 72.38445743 -27.49633789 59.17602539 C-27.17636841 58.39605194 -26.85639893 57.61607849 -26.5267334 56.81246948 C-23.11558549 48.49679655 -19.70950947 40.17908038 -16.31257629 31.85758972 C-14.81893566 28.19951748 -13.32343792 24.54220592 -11.82772827 20.88497925 C-11.11098277 19.13090975 -10.3951715 17.37645819 -9.68032837 15.62161255 C-8.69545539 13.20393288 -7.70756261 10.78750836 -6.71899414 8.37133789 C-6.42502747 7.6473732 -6.13106079 6.92340851 -5.82818604 6.17750549 C-3.35240506 0.14180554 -3.35240506 0.14180554 0 0 Z M5.31616211 8.11352539 C4.95079346 9.0895874 4.5854248 10.06564941 4.20898438 11.07128906 C-3.37384151 31.32484447 -10.97828234 51.57011531 -18.62133789 71.80102539 C-18.9671994 72.71677338 -19.31306091 73.63252136 -19.66940308 74.57601929 C-20.34950532 76.3765089 -21.02981605 78.17691979 -21.71034241 79.97724915 C-22.37129607 81.72598354 -23.03173706 83.4749118 -23.69163513 85.2240448 C-25.43015437 89.82594379 -27.18654841 94.42018727 -28.96557617 99.0065918 C-29.33743546 99.96950638 -29.70929474 100.93242096 -30.09242249 101.92451477 C-30.80733256 103.77395106 -31.52625899 105.62184124 -32.2497406 107.46794128 C-32.72867516 108.70946709 -32.72867516 108.70946709 -33.21728516 109.97607422 C-33.64304588 111.0687133 -33.64304588 111.0687133 -34.07740784 112.1834259 C-34.83371236 114.25334668 -34.83371236 114.25334668 -34.68383789 117.11352539 C-7.62383789 117.11352539 19.43616211 117.11352539 47.31616211 117.11352539 C44.84464664 108.83867186 44.84464664 108.83867186 42.02319336 100.73071289 C41.56904053 99.51101807 41.1148877 98.29132324 40.64697266 97.03466797 C40.14094729 95.68592445 39.6348407 94.33721141 39.12866211 92.98852539 C38.58781933 91.54028921 38.047221 90.09196172 37.50683594 88.64355469 C35.86065773 84.23526003 34.20925424 79.82893559 32.55700684 75.4229126 C31.15674454 71.68835175 29.75740156 67.9534471 28.3581543 64.21850586 C21.35052978 45.51445349 14.33567791 26.81311807 7.31616211 8.11352539 C6.65616211 8.11352539 5.99616211 8.11352539 5.31616211 8.11352539 Z " fill="#C98624" transform="translate(252.683837890625,-0.113525390625)"/>
<path d="M0 0 C46.53 0 93.06 0 141 0 C141 2.97 141 5.94 141 9 C101.07 9 61.14 9 20 9 C20 37.05 20 65.1 20 94 C55.97 94 91.94 94 129 94 C129 96.97 129 99.94 129 103 C93.03 103 57.06 103 20 103 C20 131.05 20 159.1 20 188 C59.93 188 99.86 188 141 188 C141 190.64 141 193.28 141 196 C94.47 196 47.94 196 0 196 C0 131.32 0 66.64 0 0 Z " fill="#C98624" transform="translate(1135,0)"/>
<path d="M0 0 C46.53 0 93.06 0 141 0 C141 2.97 141 5.94 141 9 C101.07 9 61.14 9 20 9 C20 37.05 20 65.1 20 94 C55.97 94 91.94 94 129 94 C129 96.97 129 99.94 129 103 C93.03 103 57.06 103 20 103 C20 131.05 20 159.1 20 188 C59.93 188 99.86 188 141 188 C141 190.64 141 193.28 141 196 C94.47 196 47.94 196 0 196 C0 131.32 0 66.64 0 0 Z " fill="#C98624" transform="translate(520,0)"/>
<path d="M0 0 C46.53 0 93.06 0 141 0 C141 2.64 141 5.28 141 8 C101.07 8 61.14 8 20 8 C20 36.38 20 64.76 20 94 C56.3 94 92.6 94 130 94 C130 96.97 130 99.94 130 103 C93.7 103 57.4 103 20 103 C20 133.69 20 164.38 20 196 C13.4 196 6.8 196 0 196 C0 131.32 0 66.64 0 0 Z " fill="#C98624" transform="translate(368,0)"/>
<path d="M0 0 C6.6 0 13.2 0 20 0 C20 64.68 20 129.36 20 196 C13.4 196 6.8 196 0 196 C0 131.32 0 66.64 0 0 Z " fill="#C98624" transform="translate(1091,0)"/>
</svg>
